<?xml version="1.0" encoding="UTF-8" standalone="no"?><!-- Generator: Gravit.io --><svg xmlns="http://www.w3.org/2000/svg" xmlns:xlink="http://www.w3.org/1999/xlink" style="isolation:isolate" viewBox="0 0 467 574" width="467pt" height="574pt"><defs><clipPath id="_clipPath_ESRuwH0eZQkONSDFdRPucRilp1id9x2i"><rect width="467" height="574"/></clipPath></defs><g clip-path="url(#_clipPath_ESRuwH0eZQkONSDFdRPucRilp1id9x2i)"><path d=" M 435.58 354.974 L 216.38 574.174 L 248.58 574.174 L 465.58 354.974 L 435.58 354.974 Z " fill="rgb(126,56,255)"/><path d=" M 435.58 216.884 L 216.38 436.084 L 248.58 436.084 L 465.58 216.884 L 435.58 216.884 Z " fill="rgb(44,232,160)"/><path d=" M 219.21 209.045 L 70.71 357.535 L 102.91 357.535 L 237.58 227.543 L 219.21 209.045 Z " fill="rgb(126,56,255)"/><g opacity="0.69"><path d=" M 435.58 354.974 L 217.79 138.604 L 249.99 138.604 L 465.58 354.974 L 435.58 354.974 Z " fill="rgb(161,111,255)"/></g><g opacity="0.68"><path d=" M 0 357.804 L 219.21 138.604 L 435.58 354.974 L 216.38 574.174 L 0 357.804 Z  M 70.71 357.804 L 219.21 209.314 L 364.87 354.974 L 216.38 503.464 L 70.71 357.804 Z " fill-rule="evenodd" fill="rgb(117,43,255)"/></g><g opacity="0.68"><path d=" M 0 219.704 L 219.21 0.504 L 435.58 216.874 L 216.38 436.084 L 0 219.704 Z  M 70.71 219.704 L 219.21 71.214 L 364.87 216.874 L 216.38 365.364 L 70.71 219.704 Z " fill-rule="evenodd" fill="rgb(2,255,158)"/></g><g opacity="0.69"><path d=" M 216.38 365.364 L 70.71 219.704 L 102.91 219.704 L 231.58 349.712 L 216.38 365.364 Z " fill="rgb(140,255,211)"/></g><g opacity="0.69"><path d=" M 216.38 503.195 L 70.71 357.535 L 102.91 357.535 L 231.58 487.543 L 216.38 503.195 Z " fill="rgb(161,111,255)"/></g><g opacity="0.69"><path d=" M 435.58 216.884 L 219.21 0 L 251.41 0 L 331.832 80.713 L 467 216.37 L 435.58 216.884 Z " fill="rgb(176,255,225)"/></g><path d=" M 219.21 71.214 L 70.71 219.704 L 102.91 219.704 L 237.58 89.712 L 219.21 71.214 Z " fill="rgb(44,232,160)"/></g></svg>